<svg width="314" height="519" viewBox="0 0 314 519" fill="none" xmlns="http://www.w3.org/2000/svg">
    <path d="M88.8259 400.143C83.2759 402.573 79.1559 407.443 75.9759 412.603C72.7959 417.763 70.3359 423.353 66.9759 428.363C66.6657 428.932 66.1823 429.387 65.5959 429.663C65.2637 429.752 64.9154 429.762 64.5786 429.693C64.2418 429.623 63.9259 429.476 63.6559 429.263C61.1559 427.493 61.8559 423.673 62.8259 420.773L72.8259 390.923C73.0051 390.132 73.4498 389.426 74.0859 388.923C75.3359 388.153 76.8759 389.153 78.1959 389.803C80.0409 390.676 82.124 390.908 84.1161 390.465C86.1082 390.021 87.8956 388.926 89.1959 387.353" fill="#0C243E"/>
    <path d="M278.606 479.733L285.146 493.863L277.606 496.863L266.056 475.853L278.606 479.733Z" fill="#F6C5A4"/>
    <path d="M117.786 127.863C101.426 135.003 90.726 151.003 83.276 167.223C75.826 183.443 70.586 200.843 60.596 215.633C54.376 224.833 46.476 232.773 39.906 241.733C29.173 256.408 22.2121 273.496 19.636 291.493C21.396 295.723 28.956 295.053 33.226 293.383C44.2297 289.07 54.3149 282.707 62.946 274.633C76.546 261.893 85.946 245.443 95.206 229.253L123.726 179.253" fill="#E49325"/>
    <path d="M30.396 289.583C27.0238 295.675 25.6262 302.663 26.396 309.583C22.706 306.163 22.736 300.403 23.216 295.393C19.086 301.783 6.906 314.563 4.806 314.923C4.16175 315.031 3.50028 314.959 2.89439 314.715C2.28849 314.471 1.76167 314.064 1.37191 313.54C0.982154 313.016 0.744566 312.394 0.685299 311.744C0.626032 311.093 0.747386 310.439 1.036 309.853L3.276 305.353C7.72316 296.104 15.1659 288.63 24.396 284.143C25.1071 283.796 25.8708 283.57 26.656 283.473H27.006C27.7061 283.504 28.3867 283.714 28.9826 284.083C29.5785 284.452 30.0699 284.967 30.4099 285.58C30.7499 286.193 30.9272 286.883 30.9247 287.583C30.9223 288.284 30.7403 288.973 30.396 289.583Z" fill="#F6C5A4"/>
    <path d="M135.266 44.0231C121.106 47.1931 109.516 59.0231 106.266 73.1431C103.016 87.2631 107.266 102.583 116.126 114.093C124.986 125.603 137.946 133.493 151.776 137.863C169.491 143.421 188.467 143.532 206.246 138.183C219.386 134.183 231.926 126.943 239.996 115.823C248.066 104.703 250.996 89.3831 245.346 76.8231C243.446 72.6131 240.546 68.7031 236.506 66.4531C223.936 59.4531 207.966 71.0731 194.166 67.0031C184.906 64.2731 179.166 55.2631 171.276 49.6731C160.42 43.3001 147.552 41.281 135.266 44.0231Z" fill="#A04790"/>
    <path d="M123.606 113.943C122.806 102.653 126.716 91.4631 132.446 81.7031C138.176 71.9431 151.446 55.9631 164.746 60.5031C179.476 65.5031 171.066 86.6831 181.876 94.8331C187.346 98.9531 195.036 97.2631 201.796 98.3431C212.456 100.043 221.096 109.593 222.586 120.283C223.087 124.067 222.804 127.913 221.756 131.583C216.823 134.328 211.605 136.528 206.196 138.143C188.417 143.492 169.441 143.381 151.726 137.823C142.202 134.897 133.331 130.164 125.596 123.883C124.523 120.665 123.854 117.326 123.606 113.943Z" fill="#923885"/>
    <path d="M120.036 110.963H120.116L123.416 55.9631L163.736 68.4531C163.736 68.4531 167.446 73.6231 164.386 87.8331C165.378 91.547 167.121 95.0184 169.506 98.0331C169.731 98.3235 169.876 98.6686 169.925 99.033C169.973 99.3974 169.924 99.7683 169.783 100.108C169.642 100.447 169.413 100.743 169.12 100.965C168.827 101.188 168.481 101.328 168.116 101.373C166.714 101.511 165.3 101.478 163.906 101.273C162.206 104.423 159.256 116.483 158.906 117.613C156.966 124.443 149.326 121.613 143.446 120.163C141.836 120.683 132.216 134.043 131.096 139.343L116.306 132.223L120.036 110.963Z" fill="#F6C5A4"/>
    <path d="M158.833 89.7026C159.073 87.6121 158.599 85.841 157.776 85.7468C156.953 85.6525 156.092 87.2709 155.853 89.3614C155.613 91.452 156.087 93.2231 156.91 93.3173C157.733 93.4115 158.594 91.7932 158.833 89.7026Z" fill="#146199"/>
    <path d="M156.606 76.0131C166.466 69.4431 167.786 66.0131 169.296 62.8531C170.806 59.6931 171.296 55.8531 169.776 52.6931C167.116 47.2031 159.906 46.0031 153.776 46.0131C147.646 46.0231 140.776 46.2331 136.476 41.8931L140.036 32.2531C140.336 31.632 140.45 30.9376 140.366 30.2531C140.117 29.5113 139.614 28.8811 138.946 28.4731C137.034 26.9807 134.831 25.9031 132.479 25.3091C130.127 24.7151 127.678 24.6177 125.286 25.0231C120.546 26.0231 116.286 29.6631 115.286 34.3931C114.286 39.1231 116.946 44.5631 121.536 46.0731C125.016 47.2231 128.896 46.1631 132.436 47.0731" fill="#AD559B"/>
    <path d="M134.326 44.7831C124.056 43.9931 114.756 51.7831 110.226 61.0631C107.146 67.3631 105.726 74.7231 107.656 81.4631C109.586 88.2031 115.296 94.0631 122.256 94.9131" fill="#AD559B"/>
    <path d="M162.186 109.143C159.945 108.233 158.005 106.712 156.586 104.753" stroke="#146199" stroke-width="0.87" stroke-miterlimit="10"/>
    <path d="M160.396 73.0431C155.886 77.5331 149.316 79.2331 144.196 83.0431C140.168 86.0333 137.175 90.208 135.636 94.9831C135.776 91.5531 131.916 88.7431 128.636 89.6131C125.356 90.4831 123.306 94.4231 124.196 97.7331C124.719 99.3723 125.742 100.807 127.121 101.836C128.5 102.865 130.166 103.438 131.886 103.473C129.166 106.653 124.086 107.003 120.366 105.093C116.646 103.183 108.076 97.0931 106.366 93.2331C100.366 79.3831 105.076 61.5731 117.426 52.9131C125.586 47.1831 142.606 48.4831 151.966 51.6631C162.596 55.2631 170.346 63.1431 160.396 73.0431Z" fill="#AD559B"/>
    <path d="M162.143 132.143C194.46 124.622 214.562 92.327 207.042 60.0093C199.521 27.6915 167.226 7.58945 134.908 15.11C102.59 22.6306 82.4882 54.926 90.0088 87.2437C97.5294 119.561 129.825 139.664 162.143 132.143Z" stroke="#4CC7E8" stroke-width="0.87" stroke-miterlimit="10"/>
    <path d="M129.016 222.693C128.139 229.054 126.652 235.317 124.576 241.393C113.076 238.132 102.047 233.392 91.7661 227.293C91.2445 227.062 90.8275 226.645 90.5961 226.123C90.5528 225.791 90.5803 225.454 90.6768 225.133C90.7733 224.812 90.9367 224.516 91.1561 224.263C97.8701 213.798 101.867 201.823 102.786 189.423" fill="#F6C5A4"/>
    <path d="M135.446 237.523L116.166 229.253C105.836 224.823 95.3361 220.253 86.7861 212.983C85.3661 211.773 83.9261 210.343 83.6461 208.493C83.3961 206.833 84.1361 205.203 84.8461 203.683C89.5161 193.683 117.306 126.343 117.306 126.343C151.506 135.843 146.916 203.563 135.446 237.523Z" fill="#FAAC19"/>
    <path d="M127.996 174.083L143.826 187.763C143.356 205.843 139.926 224.253 135.446 237.523C135.446 237.523 123.506 210.793 127.996 174.083Z" fill="#E49325"/>
    <path d="M136.096 294.413C156.036 316.583 176.646 339.993 183.926 368.913C185.186 373.913 185.736 380.033 181.926 383.563C180.196 385.173 177.846 385.923 175.576 386.563C145.227 395.659 113.962 401.36 82.356 403.563C77.656 396.923 82.286 385.563 88.426 380.283C94.566 375.003 102.836 372.963 110.756 371.153L136.866 365.153C138.866 364.693 141.126 364.083 142.256 362.333C143.676 360.123 142.666 357.223 141.606 354.813C133.196 335.623 123.796 316.813 117.256 296.913C110.716 277.013 107.126 255.683 110.746 235.043" fill="#E14F5D"/>
    <path d="M91.006 224.683L125.336 242.143C154.666 274.323 182.016 306.253 209.886 339.703C225.886 358.873 238.326 379.193 250.086 401.203C263.236 425.823 271.316 452.713 278.606 479.713L269.906 482.573C253.906 466.063 227.046 433.043 216.836 412.063C210.656 399.363 205.836 385.613 196.116 375.353C187.796 366.543 178.616 361.353 168.116 355.263C145.427 342.087 125.792 324.248 110.506 302.923C75.456 253.723 80.146 241.463 91.006 224.683Z" fill="#F15E67"/>
    <path d="M109.786 161.733L135.416 208.533C137.706 212.713 140.046 216.963 143.416 220.303C146.233 223.02 149.654 225.031 153.398 226.171C157.142 227.311 161.103 227.548 164.956 226.863C179.316 224.173 188.016 209.773 194.136 196.513C200.256 183.253 206.866 168.403 220.316 162.723C216.316 158.773 210.706 161.803 206.106 165.063C200.648 168.935 195.493 173.217 190.686 177.873C185.046 183.343 178.686 189.803 170.866 189.153C162.866 188.483 157.566 180.613 154.426 173.213C148.846 160.033 145.046 144.273 132.496 137.383C129.926 135.973 126.946 135.023 124.076 135.613C121.206 136.203 118.596 138.703 118.656 141.613" fill="#FAAC19"/>
    <path d="M211.936 155.693C224.676 154.9 237.429 154.433 250.196 154.293C249.996 157.233 248.316 158.973 245.436 159.573C242.556 160.173 239.556 159.743 236.626 159.983C229.696 160.543 223.506 164.783 216.626 165.563C212.896 165.983 213.116 159.233 211.936 155.693Z" fill="#F6C5A4"/>
    <path d="M237.176 153.973C237.536 154.713 236.626 155.413 235.866 155.743C230.599 157.985 225.158 159.791 219.596 161.143" stroke="#146199" stroke-width="0.87" stroke-miterlimit="10"/>
    <path d="M201.536 156.213H269.476V151.713H201.536V156.213Z" fill="white"/>
    <path d="M273.538 153.606L303.022 92.3968L298.968 90.4439L269.484 151.653L273.538 153.606Z" fill="white"/>
    <path d="M25.086 288.503C24.2742 289.527 23.7227 290.732 23.4789 292.016C23.235 293.299 23.3061 294.623 23.686 295.873" stroke="#146199" stroke-width="0.87" stroke-miterlimit="10"/>
    <path d="M16.096 304.003C13.5333 301.719 11.7121 298.72 10.866 295.393" stroke="#146199" stroke-width="0.87" stroke-miterlimit="10"/>
    <path d="M14.506 301.883L3.146 314.283" stroke="#146199" stroke-width="0.87" stroke-miterlimit="10"/>
    <path d="M13.0659 299.953L1.34595 311.953" stroke="#146199" stroke-width="0.87" stroke-miterlimit="10"/>
    <path d="M11.6961 297.833C8.55607 301.263 5.96607 304.593 2.47607 307.663" stroke="#146199" stroke-width="0.87" stroke-miterlimit="10"/>
    <path d="M284.276 491.223C286.586 496.823 291.366 501.043 296.446 504.343C301.526 507.643 307.066 510.223 311.996 513.743C312.559 514.066 313.003 514.56 313.266 515.153C313.346 515.488 313.348 515.836 313.27 516.171C313.191 516.506 313.036 516.819 312.816 517.083C310.996 519.543 307.186 518.753 304.316 517.723L274.696 507.083C273.899 506.893 273.193 506.434 272.696 505.783C271.956 504.513 272.986 503.003 273.696 501.693C275.586 498.113 274.876 494.693 274.276 490.753" fill="#0C243E"/>
    <path d="M131.166 91.2531C129.961 91.9459 128.936 92.9141 128.177 94.0785C127.417 95.243 126.944 96.5707 126.796 97.9531" stroke="#146199" stroke-width="0.94" stroke-miterlimit="10"/>
    <path d="M129.306 92.6631C130.675 94.1891 131.829 95.8949 132.736 97.7331" stroke="#146199" stroke-width="0.94" stroke-miterlimit="10"/>
    <path d="M254.316 122.953L273.036 127.033" stroke="#4CC7E8" stroke-width="0.87" stroke-miterlimit="10"/>
    <path d="M277.536 79.1831L287.696 94.9331" stroke="#4CC7E8" stroke-width="0.87" stroke-miterlimit="10"/>
    <path d="M262.316 100.003L279.676 108.013" stroke="#4CC7E8" stroke-width="0.87" stroke-miterlimit="10"/>
    <path d="M139.816 143.293C139.816 143.293 107.676 167.913 131.016 200.523C131.016 200.523 91.6761 182.283 132.516 137.383C135.439 138.657 137.962 140.699 139.816 143.293Z" fill="#5FB7AA"/>
    <path d="M102.506 138.423L126.366 146.613C128.883 147.6 130.952 149.475 132.181 151.883C133.41 154.291 133.714 157.066 133.036 159.683C130.586 169.163 120.536 199.483 115.986 209.103C114.814 211.576 112.766 213.525 110.239 214.575C107.711 215.624 104.885 215.698 102.306 214.783L75.146 205.783C73.7689 205.306 72.5005 204.56 71.4142 203.588C70.328 202.616 69.4457 201.438 68.8186 200.123C68.1915 198.807 67.8321 197.38 67.7613 195.924C67.6905 194.469 67.9096 193.013 68.406 191.643C71.346 183.453 81.296 154.563 89.006 141.953C91.846 137.393 97.506 136.453 102.506 138.423Z" fill="#F26823"/>
    <path d="M123.496 145.613L100.606 208.813" stroke="#F58755" stroke-miterlimit="10"/>
    <path d="M93.696 142.103L116.416 149.813" stroke="#4CC7E8" stroke-width="0.87" stroke-miterlimit="10"/>
    <path d="M100.606 159.293C103.362 159.293 105.596 157.059 105.596 154.303C105.596 151.547 103.362 149.313 100.606 149.313C97.8501 149.313 95.616 151.547 95.616 154.303C95.616 157.059 97.8501 159.293 100.606 159.293Z" fill="white"/>
</svg>
